<?xml version="1.0" encoding="utf-8"?>
<!-- Generator: Adobe Illustrator 20.0.0, SVG Export Plug-In . SVG Version: 6.00 Build 0)  -->
<svg version="1.1" id="Laag_1" xmlns="http://www.w3.org/2000/svg" xmlns:xlink="http://www.w3.org/1999/xlink" x="0px" y="0px"
	 viewBox="0 0 377.3 291.3" style="enable-background:new 0 0 377.3 291.3;" xml:space="preserve">
	 <style>
		 path {
			 fill: #f5f8f9;
			  opacity: .1;
		 }

	 </style>
<g>
	<path d="M81.5,52.9c0-17.4,14.1-31.5,31.5-31.5c12,0,22.4,6.7,27.8,16.6c1.7,0.2,3.4,0.5,5,1c2.5-3.4,6.6-5.7,11.2-5.7
		c5.1,0,9.6,2.8,12,6.9c0.8-0.2,1.6-0.3,2.4-0.5c-2.7-5.2-8.1-8.8-14.4-8.8c-5.6,0-10.6,2.9-13.5,7.2c-1-2.1-2.2-4.1-3.6-5.9
		c4.2-4.8,10.3-7.8,17.1-7.8c9.7,0,18,6.1,21.2,14.8c0.8,0,1.7,0.1,2.5,0.1c-3.3-10-12.7-17.2-23.8-17.2c-7.4,0-14,3.2-18.6,8.3
		c-1.4-1.5-2.9-2.9-4.5-4.2c5.7-6.3,13.9-10.3,23.1-10.3c14.9,0,27.3,10.5,30.4,24.4c0.9,0.2,1.7,0.4,2.5,0.7
		c-0.8-4.1-2.3-8-4.4-11.5c1.7-0.8,3.5-1.3,5.5-1.3c3.6,0,6.8,1.5,9,3.9c-3.7,2.4-7,5.5-9.5,9.1c0.8,0.3,1.5,0.5,2.3,0.8
		c5.6-7.7,14.7-12.7,24.9-12.7c16.9,0,30.7,13.8,30.7,30.7c0,1.7-0.1,3.3-0.4,4.9c0.7,0.5,1.4,0.9,2.1,1.5c0.4-2.1,0.6-4.2,0.6-6.4
		c0-18-14.5-32.7-32.4-33.1c-5-10-15.4-16.9-27.4-16.9c-7.3,0-14,2.6-19.3,6.9c-4.5-2.2-9.5-3.4-14.8-3.4c-9.9,0-18.9,4.3-25,11.2
		C126.5,21.2,120,19,113,19c-18.7,0-33.9,15.2-33.9,33.9c0,7.6,2.5,14.6,6.8,20.3c0.3-0.9,0.6-1.8,1-2.7
		C83.5,65.5,81.5,59.4,81.5,52.9 M202.1,31c-2.7-3.1-6.7-5-11.1-5c-2.5,0-4.8,0.6-6.8,1.7c-1.1-1.6-2.4-3.1-3.8-4.4
		c3.1-1.9,6.7-3,10.6-3c6.8,0,12.8,3.3,16.6,8.4C205.6,29.3,203.8,30,202.1,31 M191,12.5c10.6,0,19.9,5.9,24.7,14.6
		c-2,0.1-3.9,0.4-5.8,0.9c-4.1-6.1-11.1-10.1-19-10.1c-4.6,0-8.8,1.4-12.4,3.7c-1.4-1.2-3-2.3-4.6-3.3
		C178.7,14.7,184.6,12.5,191,12.5"/>
	<path d="M113,27.6c-13.9,0-25.3,11.3-25.3,25.3c0,4.1,1,8,2.7,11.4c0.5-0.7,1.1-1.4,1.6-2c-1.3-2.9-2-6.1-2-9.4
		c0-12.7,10.3-23,23-23c7.3,0,13.8,3.4,18,8.7c0.8-0.2,1.7-0.4,2.5-0.5C129,31.8,121.5,27.6,113,27.6"/>
	<path d="M113,36.5c-9,0-16.4,7.3-16.4,16.4c0,1.7,0.3,3.3,0.7,4.8c0.7-0.5,1.4-0.9,2.1-1.3c-0.3-1.1-0.5-2.3-0.5-3.6
		c0-7.7,6.3-14,14-14c3.6,0,6.8,1.3,9.3,3.6c0.7-0.4,1.4-0.9,2.1-1.2C121.5,38.3,117.4,36.5,113,36.5"/>
	<path d="M217.7,35.4c-7.9,0-14.9,3.7-19.4,9.4c0.7,0.4,1.3,0.8,2,1.3c4.1-5.1,10.4-8.4,17.4-8.4c12.3,0,22.4,10,22.4,22.4
		c0,0.5,0,1-0.1,1.4c0.8,0.2,1.5,0.4,2.3,0.7c0.1-0.7,0.1-1.4,0.1-2.2C242.4,46.5,231.3,35.4,217.7,35.4"/>
	<path d="M217.7,44.1c-5,0-9.5,2.3-12.5,6c0.6,0.5,1.1,1.1,1.7,1.7c2.5-3.2,6.4-5.3,10.8-5.3c7.5,0,13.7,6.1,13.7,13.7
		c0,0.2,0,0.4,0,0.5c0.5,0,0.9,0,1.4,0c0.3,0,0.6,0,1,0c0-0.2,0-0.4,0-0.5C233.7,51.3,226.5,44.1,217.7,44.1"/>
	<path d="M87.6,75.9c2.6-11.8,13.2-20.7,25.9-20.7c10.9,0,20.2,6.6,24.3,16c-1.6,0.5-3.1,1.1-4.6,1.8c-3.4-7.6-10.9-12.8-19.7-12.8
		c-9.9,0-18.3,6.7-20.8,15.9c0.8,0.1,1.6,0.2,2.3,0.3c2.3-8,9.7-13.9,18.5-13.9c7.9,0,14.6,4.7,17.6,11.5c-1.6,0.8-3.1,1.7-4.5,2.7
		c-2-5.3-7.1-9-13.1-9c-6.4,0-11.7,4.3-13.5,10.1c0.7,0.3,1.5,0.6,2.2,0.9c1.3-5,5.9-8.6,11.3-8.6c5.2,0,9.6,3.4,11.1,8.1
		c-4.1,3.2-7.6,7-10.3,11.4c-0.5,0.8-0.9,1.5-1.3,2.3c-0.2,0.3-0.3,0.7-0.5,1c-1.3,0.3-2.7,0.6-3.9,1.1c-0.8,0.3-1.5,0.5-2.2,0.8
		c-1.6,0.7-3.2,1.5-4.7,2.3c-0.7,0.4-1.3,0.8-2,1.3c-3.8,2.6-7.1,6-9.6,9.9c-0.1,0-0.3,0-0.4,0c0,0-0.1,0-0.1,0
		c-0.8,0-1.5,0-2.3,0.1c-1.1,0.1-2.2,0.2-3.2,0.5c-0.8,0.2-1.5,0.4-2.3,0.6c-1.1,0.3-2.2,0.7-3.2,1.2c-0.7,0.3-1.4,0.7-2.1,1.1
		c-2.5,1.4-4.8,3.2-6.7,5.3c0.8,0.2,1.7,0.5,2.5,0.8c4.4-4.4,10.6-7.2,17.3-7.2c13.5,0,24.6,11,24.6,24.6c0,4.2-1.1,8.1-2.9,11.6
		c-0.7,0.1-1.3,0.2-2,0.4c-0.5-0.9-1.1-1.8-1.8-2.6c1.5-2.8,2.3-6,2.3-9.3c0-11.1-9-20.2-20.2-20.2c-5,0-9.6,1.8-13.1,4.9
		c0.7,0.4,1.4,0.9,2,1.4c3-2.4,6.9-3.9,11.1-3.9c9.8,0,17.8,8,17.8,17.8c0,2.7-0.6,5.2-1.6,7.5c-1.2-1.1-2.4-2.1-3.8-3
		c0.5-1.4,0.8-2.9,0.8-4.5c0-7.2-5.9-13.1-13.1-13.1c-2.8,0-5.3,0.9-7.5,2.3c0.5,0.6,1.1,1.2,1.6,1.8c1.7-1.1,3.7-1.8,5.9-1.8
		c6,0,10.8,4.8,10.8,10.8c0,1.2-0.2,2.3-0.5,3.4c-2.7-1.2-5.7-1.9-8.8-1.9c-0.7,0-1.5,0-2.2,0.1c-0.8,0.1-1.6,0.2-2.3,0.4
		c-1.5,0.3-2.9,0.8-4.2,1.4c-0.7,0.3-1.5,0.7-2.2,1.1c-1.2,0.8-2.4,1.6-3.5,2.6c0.9,0.3,1.7,0.6,2.5,0.9c3.2-2.6,7.3-4.2,11.8-4.2
		c10.3,0,18.7,8.4,18.7,18.7c0,3-0.7,5.9-2,8.4c-0.7-0.7-1.5-1.4-2.2-2c0.9-2,1.4-4.2,1.4-6.4c0-8.7-7.1-15.9-15.9-15.9
		c-3.3,0-6.4,1-9,2.8c0.7,0.4,1.4,0.9,2.1,1.4c2-1.2,4.4-1.9,6.9-1.9c7.5,0,13.5,6.1,13.5,13.5c0,1.8-0.4,3.5-1,5
		c-0.9-0.6-1.8-1.1-2.7-1.6c0.4-1.1,0.6-2.3,0.6-3.5c0-5.8-4.7-10.4-10.4-10.4c-1.6,0-3,0.4-4.4,1c0.6,0.6,1.1,1.2,1.7,1.8
		c0.9-0.3,1.8-0.5,2.7-0.5c4.5,0,8.1,3.6,8.1,8.1c0,0.9-0.1,1.7-0.4,2.5c-1.9-0.8-3.9-1.3-6-1.6c-0.8-0.1-1.7-0.2-2.5-0.2
		c-0.4,0-0.9,0-1.3,0c-0.8,0-1.6,0-2.4,0.1c-0.8,0.1-1.6,0.2-2.4,0.3c-1.3,0.2-2.5,0.6-3.8,1c-0.7,0.3-1.5,0.5-2.2,0.8
		c-2.4,1.1-4.7,2.5-6.7,4.2c0.8,0.3,1.6,0.7,2.3,1.1c4.2-3.3,9.4-5.2,15.1-5.2c11.5,0,21.2,8,23.9,18.8c-0.3,0-0.5,0-0.8,0
		c-1.3,0-2.5,0.1-3.7,0.3c-2.4-8.4-10.2-14.6-19.4-14.6c-4.2,0-8,1.3-11.2,3.4c0.6,0.5,1.2,1,1.8,1.6c2.7-1.7,6-2.7,9.4-2.7
		c8,0,14.8,5.3,17.1,12.7c-1.5,0.3-3,0.8-4.5,1.4c-1.6-5.4-6.6-9.4-12.6-9.4c-2.3,0-4.4,0.6-6.3,1.6c0.5,0.6,0.9,1.3,1.3,2
		c1.5-0.8,3.2-1.2,5-1.2c5,0,9.2,3.4,10.4,8c-4,2.1-7.5,5.1-10,8.8c0.8,0.3,1.5,0.6,2.2,0.9c4.6-6.3,12.1-10.4,20.5-10.4
		c12.3,0,22.6,8.8,24.9,20.4c0.2,0,0.4,0,0.7,0c0.6,0,1.2,0,1.7,0c-1-5.6-3.7-10.6-7.5-14.5c2-3.4,5.8-5.8,10.1-5.8
		c5.7,0,10.4,4,11.5,9.4c-4.7,2.7-8.6,6.5-11.5,11.1c0.9,0.1,1.7,0.2,2.5,0.4c5.5-8.1,14.8-13.4,25.2-13.4c11.5,0,21.6,6.5,26.8,16
		c0.4,0,0.9,0,1.3,0c0.9,0,1.8,0,2.6,0.1c3.4-10.8,13.4-18.6,25.3-18.6c9.4,0,17.6,4.9,22.4,12.3c0.7-0.3,1.4-0.7,2.2-1
		c-2.8-4.5-6.7-8.1-11.4-10.5c-0.9-2.4-1.4-5-1.4-7.7c0-11.2,8.6-20.5,19.5-21.6c-0.3,1.8-0.4,3.7-0.4,5.6c0,0.2,0,0.5,0,0.7
		c-7.3,1.3-12.9,7.7-12.9,15.4c0,5.9,3.3,11,8.1,13.7c-0.2,1.4-0.3,2.7-0.4,4.1c0.8-0.3,1.6-0.6,2.4-0.9
		c1.3-18.6,16.5-33.4,35.3-33.9c0.3-0.8,0.6-1.6,0.9-2.4c-4.4,0-8.7,0.8-12.7,2.2c0.6-7.6,6.9-13.7,14.7-13.7c1.7,0,3.4,0.3,4.9,0.8
		c0.6-0.6,1.2-1.2,1.8-1.8c-2.1-0.9-4.3-1.4-6.7-1.4c-9.4,0-17,7.6-17.1,16.9c-2.4,1-4.6,2.3-6.7,3.7c-0.2-1.2-0.3-2.4-0.3-3.6
		c0-13.3,10.8-24.1,24.1-24.1c4.8,0,9.2,1.4,13,3.8c0.8-0.4,1.5-0.9,2.3-1.2c-4.3-3.1-9.6-4.9-15.3-4.9c-14.6,0-26.4,11.9-26.4,26.4
		c0,1.8,0.2,3.5,0.5,5.1c-2,1.6-3.8,3.3-5.4,5.3c-1.1-3.3-1.7-6.8-1.7-10.4c0-18.2,14.8-33.1,33.1-33.1c8.8,0,16.7,3.4,22.6,9
		c0.9-0.2,1.8-0.4,2.8-0.5c-3.1-3.3-6.9-5.9-11.1-7.8c-0.8-0.3-1.6-0.7-2.4-1c-2.4-0.9-5-1.5-7.6-1.8c-0.9-0.1-1.8-0.2-2.6-0.2
		c-0.6,0-1.1,0-1.7,0c-2.1,0-4.1,0.2-6,0.5c-0.1,0-0.2,0-0.3,0.1c-0.5-0.6-1-1.2-1.6-1.8c0.1-0.5,0.1-0.9,0.2-1.4
		c0.2-1.4,0.3-2.8,0.3-4.2c0-7.3-2.2-14.1-6-19.8c-0.4-0.7-0.9-1.3-1.4-1.9c-1.4-1.8-3.1-3.6-4.8-5.1c-0.6-0.5-1.2-1-1.8-1.5
		c-1.8-1.4-3.7-2.5-5.8-3.5c-0.7-0.4-1.5-0.7-2.2-1c-0.2-0.1-0.4-0.1-0.6-0.2c-0.3-9-4.7-16.9-11.4-22c-0.7-0.5-1.4-1-2.1-1.5
		c-1.8-1.1-3.7-2.1-5.7-2.8c-0.8-0.3-1.5-0.5-2.3-0.7c-2-0.5-4.2-0.8-6.3-0.9c-0.3,0-0.6,0-1,0c-0.5,0-0.9,0-1.4,0
		c-5.8,0.3-11.2,2.3-15.6,5.5c-1.9-5.4-4.9-10.4-8.8-14.5c-0.5-0.6-1.1-1.1-1.7-1.7c-1.5-1.5-3.2-2.8-5-4c-0.6-0.4-1.3-0.9-2-1.3
		c-1.7-1-3.6-2-5.5-2.7c-0.7-0.3-1.5-0.6-2.3-0.8c-0.2-0.1-0.4-0.1-0.6-0.2c-0.8-0.3-1.7-0.5-2.5-0.7c-2.1-0.5-4.4-0.9-6.6-1.1
		c-0.8-0.1-1.7-0.1-2.5-0.1c-0.2,0-0.4,0-0.5,0c-2.2,0-4.3,0.2-6.3,0.5c-0.8,0.1-1.6,0.3-2.4,0.5c-4.3,1-8.4,2.6-12,4.8
		c-3.2-2.8-6.9-4.9-11.1-6c-1.6-0.5-3.3-0.8-5-1c-0.9-0.1-1.9-0.1-2.9-0.1c-1.5,0-2.9,0.1-4.3,0.3c-0.9,0.1-1.7,0.3-2.5,0.5
		c-2.3,0.6-4.5,1.4-6.6,2.5c-0.7,0.4-1.4,0.8-2.1,1.2c-4,2.6-7.4,6.2-9.7,10.4c-4.8,0.1-9.3,1.4-13.2,3.6c-0.7,0.4-1.4,0.8-2.1,1.3
		c-1.9,1.3-3.7,2.9-5.3,4.6c-0.6,0.6-1.1,1.3-1.6,2c-1.4,1.9-2.6,4-3.6,6.2c-0.4,0.9-0.7,1.8-1,2.7c-0.3,1-0.5,2-0.7,3
		C86,76,86.8,75.9,87.6,75.9 M137.9,40.2c6.4,0,12.3,2.3,16.9,6.1c-1.4,1-2.7,2-4,3.1c-3.6-2.7-8.1-4.3-13-4.3
		c-7,0-13.3,3.4-17.2,8.6c-1.7-0.4-3.5-0.7-5.4-0.8C120,45.3,128.3,40.2,137.9,40.2 M177.6,41.5c20,0,36.4,15.6,37.8,35.3
		c-2.6-1.1-5.4-2-8.3-2.7c-2.5-14-14.8-24.7-29.5-24.7c-12.9,0-24,8.2-28.2,19.7c-3,0.1-5.8,0.5-8.6,1.2
		C145,53.8,159.9,41.5,177.6,41.5 M281.8,121.5c0,1.2-0.1,2.4-0.2,3.6c-2-1.8-4.1-3.3-6.5-4.6c-0.5-14.1-12.2-25.4-26.4-25.4
		c-8.9,0-16.7,4.4-21.5,11.1c-0.6,0-1.2-0.1-1.9-0.1c-2.1,0-4.2,0.2-6.2,0.7c5.4-10.9,16.6-18.3,29.6-18.3
		C267,88.4,281.8,103.3,281.8,121.5 M234.8,179.8c0,2.2,0.3,4.4,0.9,6.4c-2-0.8-4.1-1.3-6.3-1.6c-0.3-1.6-0.4-3.2-0.4-4.8
		c0-16.5,13.4-29.8,29.8-29.8c0,0,0.1,0,0.1,0c-0.8,1.9-1.4,3.8-1.9,5.8C244.7,156.8,234.8,167.2,234.8,179.8 M211.2,188.2
		c-2.1-5-7.1-8.6-12.9-8.6c-6.7,0-12.4,4.8-13.7,11.1c-1.6-0.8-3.2-1.5-4.9-2.1c2.2-8.2,9.7-14.2,18.6-14.2
		c7.9,0,14.7,4.8,17.7,11.6C214.3,186.6,212.7,187.3,211.2,188.2 M198.3,172.1c-9.9,0-18.3,6.8-20.8,15.9c-1.6-0.4-3.2-0.7-4.9-0.8
		c2.9-11.5,13.3-20,25.7-20c11.4,0,21.1,7.2,24.9,17.3c-1.7,0.1-3.3,0.4-4.9,0.8C215,177.5,207.3,172.1,198.3,172.1 M141.7,179.6
		c-5,0-9.3,2.6-11.8,6.5c-1.3-1.1-2.7-2.1-4.3-3c3.4-5.2,9.4-8.7,16.1-8.7c8.8,0,16.2,5.9,18.5,13.9c-1.7,0.5-3.3,1.1-4.9,1.9
		C153.8,184.1,148.3,179.6,141.7,179.6 M141.7,172.1c-7.6,0-14.3,4-18.2,9.9c-1.5-0.7-3.1-1.3-4.7-1.7c4.6-7.8,13.1-13.1,22.9-13.1
		c12.3,0,22.7,8.5,25.7,19.9c-1.7,0.1-3.3,0.3-4.9,0.7C159.9,178.7,151.6,172.1,141.7,172.1 M115,179.6c-0.9-4.4-2.9-8.4-5.7-11.7
		c0.6-1,1.1-2.1,1.5-3.3c1.5-0.7,3.1-1.1,4.9-1.1c4.4,0,8.2,2.4,10.2,6c-3.9,2.6-7.2,6.1-9.5,10.2C116,179.7,115.5,179.6,115,179.6
		 M111.9,156.3c1.2-0.2,2.5-0.4,3.8-0.4c7.4,0,13.8,4.2,17,10.3c-1.7,0.6-3.3,1.2-4.8,2.1c-2.4-4.3-7-7.1-12.2-7.1
		c-1.4,0-2.8,0.2-4.1,0.6c0.3-1.3,0.4-2.7,0.4-4.1C112,157.2,112,156.8,111.9,156.3 M110.2,149.3c1.8-0.4,3.6-0.6,5.4-0.6
		c10.9,0,20.3,6.7,24.4,16.1c-1.7,0.1-3.4,0.4-5.1,0.7c-3.5-7.1-10.9-12-19.3-12c-1.4,0-2.7,0.1-4,0.4
		C111.4,152.4,110.9,150.8,110.2,149.3 M116.4,135.2c0-7-2.7-13.3-7-18.1c2.7-2.6,6.3-4.3,10.4-4.3c7.7,0,14.1,5.9,14.7,13.5
		c-8.3,2.2-15.1,7.9-18.8,15.5c0,0-0.1,0-0.1,0C116.1,139.6,116.4,137.4,116.4,135.2 M119.8,94.5c18.3,0,33.1,14.9,33.1,33.1
		c0,0,0,0,0,0.1c-2.1-0.9-4.4-1.5-6.7-1.9c-1-13.7-12.4-24.6-26.4-24.6c-8,0-15.2,3.6-20,9.2c-2.2-0.9-4.5-1.5-7-1.8
		C98.7,100,108.6,94.5,119.8,94.5 M151,71.4c8.8,0,17,2.8,23.6,7.6c-2.7,1.5-5.2,3.3-7.6,5.3c-4.7-2.8-10.2-4.3-16.1-4.3
		c-10.4,0-19.6,4.9-25.5,12.6c-1.9-0.3-3.8-0.5-5.8-0.5c-1.5,0-2.9,0.1-4.4,0.3C122.3,79.9,135.7,71.4,151,71.4 M130,58
		c2.1-1.9,4.8-3.1,7.9-3.1c2.4,0,4.6,0.7,6.4,1.9c-2.3,3.4-4.1,7.2-5.3,11.3C136.8,64.2,133.8,60.7,130,58 M177.6,51.7
		c13.3,0,24.4,9.4,27.1,21.9c-2.4-0.4-4.9-0.6-7.5-0.6c-0.4,0-0.9,0-1.3,0c-2.6-7.5-9.8-13-18.3-13c-7.3,0-13.7,4.1-17,10.1
		c-2.8-0.6-5.7-1-8.7-1.1C156.1,58.9,166,51.7,177.6,51.7 M230.8,91c-2.7,1.6-5.2,3.6-7.4,5.8c-6.3-7.4-15.7-12.1-26.1-12.1
		c-14.1,0-26.2,8.5-31.5,20.6c-4,0.5-7.8,1.8-11.2,3.8c4.6-19.3,21.9-33.8,42.7-33.8C210.7,75.4,222.7,81.4,230.8,91 M232.7,70.2
		c9.5,0,17.4,6.9,19,16c-1-0.1-1.9-0.1-2.9-0.1c-0.8,0-1.6,0-2.4,0.1c-1.5-6.1-7-10.7-13.6-10.7c-4.2,0-8,1.9-10.6,4.8
		c-1.4-0.9-2.8-1.7-4.2-2.4c0-0.2,0-0.4,0-0.7C221.4,73,226.7,70.2,232.7,70.2 M224.1,81.6c2.1-2.3,5.2-3.8,8.6-3.8
		c5.4,0,9.9,3.7,11.3,8.6c-3.9,0.5-7.7,1.7-11.1,3.4C230.3,86.8,227.3,84,224.1,81.6 M216.2,107.6
		C216.1,107.6,216.1,107.6,216.2,107.6c-4-6.3-11-10.5-18.9-10.5c-7.5,0-14.2,3.8-18.2,9.6c-3-1-6.2-1.5-9.5-1.5c-0.4,0-0.7,0-1.1,0
		c5.2-10.7,16.2-18,28.8-18c9.8,0,18.6,4.5,24.5,11.5C219.5,101.3,217.6,104.3,216.2,107.6 M248.7,97.4c12.5,0,22.9,9.6,24,21.9
		c-2.4-1.1-4.9-1.8-7.5-2.3c-2-7.2-8.6-12.6-16.5-12.6c-4.3,0-8.3,1.6-11.3,4.3c-2.3-1.1-4.8-1.9-7.5-2.3
		C234.4,100.9,241.1,97.4,248.7,97.4 M239.7,109.9c2.5-2,5.7-3.1,9.1-3.1c6.4,0,11.9,4.1,13.9,9.8c-1.1-0.1-2.3-0.2-3.4-0.2
		c-3.7,0-7.2,0.6-10.5,1.7C246.4,114.8,243.3,112,239.7,109.9 M246.5,119c-1.5,0.6-3,1.4-4.5,2.3c-4-4.8-10-7.9-16.7-7.9
		c-8.9,0-16.6,5.4-19.9,13.1c-1.6-0.4-3.2-0.8-4.9-0.9c3.8-10,13.5-17.1,24.8-17.1C234,108.4,241.7,112.6,246.5,119 M241.1,153.1
		c-1.4,1-2.8,2-4,3.2c-3.4-2.2-7.4-3.4-11.7-3.4c-8.8,0-16.5,5.3-19.8,13c-1.6-0.4-3.3-0.7-5-0.8c3.8-10,13.5-17,24.8-17
		C231.3,147.9,236.7,149.8,241.1,153.1 M225.4,160.3c-5.7,0-10.6,3.4-12.8,8.3c-1.5-0.9-3.1-1.6-4.7-2.2c3-6.7,9.7-11.3,17.5-11.3
		c3.7,0,7.1,1,10,2.8c-1.2,1.3-2.3,2.7-3.3,4.1C230.1,161,227.8,160.3,225.4,160.3 M170.5,186.1c-0.1,0-0.3,0-0.4,0
		c-0.2,0-0.3,0-0.5,0c-1.7-6.3-5.5-11.7-10.5-15.5c1.6-4.6,5.9-7.9,11.1-7.9c5.1,0,9.4,3.3,11,7.8
		C176,174.3,172.2,179.8,170.5,186.1 M170,160.3c-5.9,0-11,3.7-13.1,8.9c-1.5-0.9-3-1.7-4.7-2.4c2.9-6.9,9.8-11.7,17.7-11.7
		c7.9,0,14.8,4.8,17.7,11.7c-1.6,0.6-3.2,1.4-4.7,2.4C181,164,175.9,160.3,170,160.3 M170,152.8c-9,0-16.7,5.5-19.9,13.3
		c-1.6-0.5-3.2-0.8-4.9-1c3.8-10,13.5-17.2,24.8-17.2c11.3,0,21,7.1,24.8,17.1c-1.7,0.2-3.3,0.5-4.9,1
		C186.7,158.3,179,152.8,170,152.8 M130.6,150.5c1.5-4.7,5.9-8,11.1-8c5.4,0,9.9,3.7,11.3,8.6c-4.6,3.4-8.2,8.2-10.2,13.7
		c-0.1,0-0.2,0-0.2,0C140.3,158.9,136,153.8,130.6,150.5 M141.7,127.7c11.6,0,21.6,7.6,25.1,18c-1.7,0.2-3.3,0.5-4.9,1
		c-3.1-8.2-11-14.1-20.2-14.1c-9.4,0-17.3,6-20.3,14.3c-1.6-0.3-3.3-0.5-5-0.5C119.7,135.6,129.8,127.7,141.7,127.7 M139.3,98
		c3.2-2.6,7.2-4.2,11.7-4.2c2.4,0,4.8,0.5,6.9,1.4c-2.9,4.8-5,10.1-6,15.8c-0.2,0.1-0.4,0.3-0.6,0.4C148.5,106,144.3,101.3,139.3,98
		 M128.1,93.1c5.5-6.6,13.7-10.8,22.9-10.8c5.2,0,10,1.3,14.3,3.7c-2.2,2.2-4.3,4.6-6.1,7.1c-2.5-1.1-5.3-1.7-8.2-1.7
		c-5.3,0-10.1,2-13.8,5.3C134.4,95.1,131.3,93.9,128.1,93.1 M197.3,99.4c7,0,13.1,3.6,16.6,9.1c-7.3,3.2-13,9.3-15.7,16.9
		c-0.1,0-0.2,0-0.2,0c-2.8-8-8.8-14.5-16.6-17.8C184.9,102.6,190.7,99.4,197.3,99.4 M222.8,145.7c-1.7,0.1-3.3,0.4-4.9,0.9
		c-3.1-8.1-11-13.9-20.2-13.9c-9.2,0-17.1,5.8-20.2,13.9c-1.6-0.4-3.2-0.7-4.9-0.9c3.6-10.4,13.5-17.9,25.1-17.9
		C209.3,127.7,219.2,135.2,222.8,145.7 M198.2,164.8c-0.3,0-0.6,0-0.9,0c-2-5.8-5.8-10.7-10.7-14.1c1.5-4.8,5.9-8.2,11.2-8.2
		c5.2,0,9.7,3.5,11.2,8.2C204,154.2,200.2,159.1,198.2,164.8 M210.9,149.4c-2-5.4-7.1-9.3-13.2-9.3c-6.1,0-11.2,3.9-13.2,9.3
		c-1.5-0.9-3.1-1.6-4.7-2.2c2.8-7.2,9.8-12.3,17.9-12.3c8.2,0,15.1,5.1,17.9,12.3C214,147.8,212.4,148.6,210.9,149.4 M158.2,130.6
		c1.8-4.5,6.2-7.7,11.3-7.7c5.2,0,9.6,3.3,11.4,7.9c-5,3.6-8.9,8.8-10.8,14.8c0,0-0.1,0-0.1,0c-0.3,0-0.5,0-0.8,0
		C167.3,139.4,163.4,134.2,158.2,130.6 M169.6,107.5c11.9,0,22,7.5,25.9,18c-1.8,0.1-3.6,0.4-5.2,0.9c-3.4-8-11.4-13.7-20.7-13.7
		c-6,0-11.4,2.4-15.4,6.2c-0.5-1.8-1.1-3.6-1.8-5.3C157,109.7,163,107.5,169.6,107.5 M169.6,115c8.2,0,15.3,5,18.4,12
		c-1.8,0.6-3.4,1.4-5,2.4c-2.2-5.2-7.4-8.9-13.4-8.9c-6,0-11.1,3.6-13.4,8.7c-0.3-0.2-0.7-0.4-1-0.6c0-0.4,0-0.8,0-1.2
		c0-2-0.2-4-0.5-6C158.4,117.6,163.7,115,169.6,115 M141.7,135c8.2,0,15.3,5.2,18,12.5c-1.6,0.6-3.2,1.4-4.7,2.3
		c-1.9-5.6-7.1-9.6-13.3-9.6c-6.1,0-11.2,3.8-13.2,9.2c-1.5-0.8-3.2-1.4-4.9-1.9C126.4,140.2,133.4,135,141.7,135 M225.4,145.5
		c-0.1,0-0.1,0-0.2,0c-1.9-6-5.7-11.2-10.8-14.8c1.7-4.4,5.9-7.5,10.9-7.5c3.6,0,6.9,1.7,9.1,4.3c-4.4,4.9-7.4,11.1-8.2,18
		C225.9,145.6,225.7,145.5,225.4,145.5 M225.4,120.9c-5.8,0-10.8,3.5-12.9,8.5c-1.5-0.9-3.1-1.6-4.7-2.3c3-6.8,9.8-11.5,17.6-11.5
		c5.9,0,11.2,2.7,14.7,6.8c-1.4,1-2.8,2.1-4,3.3C233.5,122.8,229.7,120.9,225.4,120.9 M163,70.8c3-5,8.4-8.3,14.6-8.3
		c7.2,0,13.3,4.5,15.8,10.8c-5.9,0.5-11.5,2.1-16.6,4.6C172.8,74.6,168.1,72.2,163,70.8 M214.6,169.9c1.8-4.2,5.9-7.2,10.8-7.2
		c2,0,3.8,0.5,5.5,1.4c-2.6,4.7-4.2,10.1-4.2,15.8c0,1.6,0.1,3.1,0.3,4.6c-0.5,0-0.9,0-1.4,0C223.6,178.4,219.7,173.4,214.6,169.9
		 M137.9,47.4c4.2,0,8.1,1.3,11.2,3.6c-1.2,1.2-2.4,2.6-3.4,4c-2.2-1.5-4.9-2.4-7.8-2.4c-3.9,0-7.4,1.6-9.9,4.1
		c-1.6-0.9-3.2-1.7-5-2.3C126.6,50.2,131.9,47.4,137.9,47.4 M119.8,103.4c12.6,0,23,9.7,24,22c-0.7,0-1.4-0.1-2.1-0.1
		c-1.7,0-3.3,0.2-4.9,0.4c-0.9-8.6-8.2-15.3-17-15.3c-4.7,0-8.9,1.9-12,5c-1.7-1.6-3.7-3-5.8-4.1
		C106.3,106.5,112.7,103.4,119.8,103.4 M113.9,146.4C113.9,146.4,113.9,146.4,113.9,146.4c0-0.1,0-0.2,0.1-0.3
		C114,146.3,114,146.3,113.9,146.4 M258.9,147.7c-4.8,0-9.3,1.1-13.4,2.9c0-0.3,0-0.6,0-0.8c0-7.6,6.2-13.8,13.8-13.8
		c2.9,0,5.6,0.9,7.8,2.4c-2.8,2.7-5.1,5.8-6.9,9.3C259.7,147.7,259.3,147.7,258.9,147.7 M268.8,136.8c-2.7-2-6-3.1-9.5-3.1
		c-8.9,0-16.1,7.2-16.1,16.1c0,0.7,0,1.3,0.1,2c0,0,0,0,0,0c-2-1.5-4.1-2.9-6.4-3.9c0.9-11.6,10.7-20.7,22.5-20.7
		c5.8,0,11,2.2,15,5.8C272.3,134.1,270.5,135.3,268.8,136.8 M276.5,131.8c-4.5-4.3-10.6-7-17.2-7c-12.8,0-23.4,9.7-24.7,22.2
		c-1.9-0.6-3.9-1.1-6-1.3c2-15.2,15-26.9,30.7-26.9c9.4,0,17.8,4.2,23.4,10.8C280.5,130.1,278.5,130.9,276.5,131.8 M254.1,86.5
		c-1.5-10.5-10.5-18.6-21.4-18.6c-5.9,0-11.2,2.4-15.1,6.2c-0.2-1.9-0.6-3.7-1.1-5.5c4.5-3.5,10.1-5.6,16.3-5.6
		c14,0,25.5,10.9,26.4,24.7C257.5,87.2,255.8,86.8,254.1,86.5 M186.7,191.9c0.8-5.6,5.7-10,11.6-10c5,0,9.2,3.1,10.9,7.5
		c-5.1,3.5-9,8.6-11,14.5C195.5,199.1,191.5,194.9,186.7,191.9 M258.5,176.4c-3.2,4.3-5.5,9.3-6.7,14.7c-3.7-2.3-6.2-6.5-6.2-11.2
		c0-6.4,4.6-11.8,10.7-13C256.6,170.2,257.4,173.4,258.5,176.4"/>
	<path d="M54.9,148.8c0-8.7-7.1-15.9-15.9-15.9s-15.9,7.1-15.9,15.9s7.1,15.9,15.9,15.9S54.9,157.5,54.9,148.8 M25.6,148.8
		c0-7.5,6.1-13.5,13.5-13.5s13.5,6.1,13.5,13.5c0,7.5-6.1,13.5-13.5,13.5S25.6,156.2,25.6,148.8"/>
	<path d="M49.5,148.8c0-5.8-4.7-10.4-10.4-10.4c-5.8,0-10.4,4.7-10.4,10.4s4.7,10.4,10.4,10.4C44.8,159.2,49.5,154.5,49.5,148.8
		 M31,148.8c0-4.5,3.6-8.1,8.1-8.1c4.5,0,8.1,3.6,8.1,8.1c0,4.5-3.6,8.1-8.1,8.1C34.6,156.9,31,153.2,31,148.8"/>
	<path d="M169.4,195.3c-7.7,0-14.7,3.6-19.1,9.2c0.8,0.3,1.5,0.6,2.2,0.9c4.1-4.8,10.1-7.8,16.9-7.8c7.4,0,14,3.7,18,9.3
		c0.8-0.3,1.6-0.5,2.4-0.7C185.4,199.6,177.9,195.3,169.4,195.3"/>
	<path d="M169.4,203.9c-4.4,0-8.4,1.8-11.3,4.8c0.6,0.5,1.3,0.9,1.9,1.4c2.4-2.4,5.8-3.8,9.4-3.8c4,0,7.6,1.7,10.1,4.5
		c0.7-0.4,1.3-0.8,2-1.2C178.6,206.1,174.3,203.9,169.4,203.9"/>
	<path d="M225.5,191.6c-9.4,0-17.5,6.1-20.4,14.5c0.8,0.2,1.5,0.4,2.3,0.6c2.7-7.4,9.8-12.8,18.1-12.8c6.7,0,12.7,3.5,16.1,8.7
		c0.6-0.4,1.3-0.9,1.9-1.3C239.7,195.5,233,191.6,225.5,191.6"/>
	<path d="M225.5,199.2c-6.2,0-11.4,4-13.3,9.6c0.7,0.4,1.4,0.7,2.1,1.2c1.4-4.8,5.9-8.4,11.2-8.4c4.4,0,8.3,2.5,10.3,6.1
		c0.6-0.6,1.2-1.1,1.7-1.7C235,201.9,230.6,199.2,225.5,199.2"/>
	<path d="M324.8,209.5c-2.4,8.4-7.9,15.6-15,20.3c0.2,0.8,0.3,1.7,0.4,2.5c8.3-5.2,14.5-13.4,17.1-23.1
		C326.5,209.4,325.7,209.5,324.8,209.5"/>
	<path d="M261.1,195.1c0.8-0.1,1.6-0.2,2.4-0.2c2-11.6,11.5-20.6,23.3-21.9c0-0.8,0.1-1.6,0.2-2.4
		C273.8,171.8,263.1,182,261.1,195.1"/>
	<path d="M306.6,220c0.3,0.7,0.7,1.5,1,2.2c4.3-3.3,7.6-7.8,9.5-13c-0.8-0.1-1.6-0.3-2.3-0.4C313,213.2,310.2,217.1,306.6,220"/>
	<path d="M271.6,195c0.8,0.1,1.6,0.2,2.3,0.3c1.7-6.5,7.2-11.4,14-12.2c-0.2-0.8-0.4-1.5-0.5-2.3C279.7,181.8,273.4,187.5,271.6,195
		"/>
	<path d="M301.1,211.2c0.5,0.6,1,1.2,1.4,1.9c2-1.9,3.6-4.2,4.7-6.8c-0.7-0.3-1.4-0.7-2.1-1.1C304.2,207.5,302.8,209.5,301.1,211.2"
		/>
	<path d="M357.6,174.2c0-8.4-2.9-16.1-7.8-22.1c0.9-3.1,1.3-6.3,1.3-9.6c0-16.7-11.6-30.7-27.1-34.4c-1.9-17.7-17-31.6-35.2-31.6
		c-10.7,0-20.3,4.8-26.8,12.3c0.8,0.3,1.5,0.6,2.2,1c6.1-6.7,14.8-10.9,24.5-10.9c16.8,0,30.6,12.5,32.8,28.7
		c-1.9-0.3-3.9-0.5-5.8-0.5c-0.3,0-0.6,0-0.9,0c-2.3-12.3-13.1-21.6-26-21.6c-7.3,0-14,3-18.8,7.9c0.6,0.5,1.2,1,1.8,1.5
		c4.4-4.3,10.4-7,17-7c11.7,0,21.5,8.4,23.6,19.4c-2.4,0.2-4.7,0.7-6.9,1.3c-1.6-7.8-8.5-13.8-16.8-13.8c-4.7,0-9,1.9-12.1,5.1
		c0.5,0.6,1,1.3,1.4,1.9c2.7-2.9,6.5-4.6,10.7-4.6c7.3,0,13.3,5.3,14.5,12.2c-8.1,3.1-14.9,9-18.9,16.7c-0.2-0.1-0.4-0.1-0.6-0.2
		c-0.1,0.5-0.1,0.9-0.2,1.4c0.5,0.6,1.1,1.2,1.6,1.8c0.1,0,0.2,0,0.3-0.1c5.2-11.5,16.7-19.5,30.2-19.5c18.2,0,33.1,14.8,33.1,33.1
		c0,2.6-0.3,5.1-0.9,7.5c-1.8-1.9-3.7-3.6-5.9-5c0.1-0.8,0.1-1.7,0.1-2.5c0-14.6-11.9-26.4-26.4-26.4c-9.4,0-17.7,5-22.4,12.4
		c0.9,0,1.8,0.1,2.6,0.2c4.4-6.2,11.6-10.3,19.8-10.3c13.3,0,24.1,10.8,24.1,24.1c0,0.4,0,0.7,0,1.1c-2.2-1.3-4.6-2.3-7.1-3.1
		c-1-8.5-8.2-15.1-17-15.1c-4.8,0-9.1,2-12.2,5.1c0.8,0.3,1.6,0.6,2.4,1c2.6-2.3,6-3.8,9.8-3.8c7.2,0,13.2,5.2,14.5,12.1
		c-2.6-0.6-5.3-0.9-8-0.9c-1.8,0-3.5,0.1-5.2,0.4c-0.9,0.1-1.9,0.3-2.8,0.5c-2.5,0.6-5,1.4-7.3,2.6c-0.8,0.4-1.6,0.8-2.3,1.2
		c-2.3,1.3-4.4,2.8-6.3,4.6c-0.6,0.6-1.2,1.2-1.8,1.8c-2.9,3.1-5.3,6.7-7,10.6c-0.3,0.8-0.6,1.6-0.9,2.4c-0.8,2.4-1.4,5-1.7,7.6
		c-0.1,0.8-0.1,1.6-0.2,2.4c0,0.4,0,0.9,0,1.3c0,2.3,0.2,4.5,0.6,6.6c0.1,0.8,0.3,1.5,0.5,2.3c2.5,9.5,8.8,17.4,17.1,22.1
		c0.7,0.4,1.4,0.7,2.1,1.1c2.4,1.1,4.9,2,7.5,2.6c0.8,0.2,1.6,0.3,2.3,0.4c1.7,0.2,3.4,0.4,5.2,0.4c0.9,0,1.8,0,2.6-0.1
		c0.8-0.1,1.7-0.1,2.5-0.3C344.5,206.8,357.6,192,357.6,174.2 M322.2,207.3c-18.2,0-33.1-14.8-33.1-33.1c0-18.2,14.8-33.1,33.1-33.1
		c18.2,0,33.1,14.8,33.1,33.1C355.3,192.5,340.5,207.3,322.2,207.3"/>
	<path d="M322.2,147.8c-14.6,0-26.4,11.9-26.4,26.4s11.9,26.4,26.4,26.4c14.6,0,26.4-11.9,26.4-26.4S336.8,147.8,322.2,147.8
		 M322.2,198.3c-13.3,0-24.1-10.8-24.1-24.1c0-13.3,10.8-24.1,24.1-24.1c13.3,0,24.1,10.8,24.1,24.1
		C346.3,187.5,335.5,198.3,322.2,198.3"/>
	<path d="M322.2,157.1c-9.4,0-17.1,7.7-17.1,17.1c0,9.4,7.7,17.1,17.1,17.1c9.4,0,17.1-7.7,17.1-17.1
		C339.3,164.8,331.7,157.1,322.2,157.1 M322.2,189c-8.1,0-14.8-6.6-14.8-14.8c0-8.1,6.6-14.8,14.8-14.8c8.1,0,14.8,6.6,14.8,14.8
		C337,182.4,330.4,189,322.2,189"/>
	<path d="M111.8,186.4c-6.7,0-12.6,3.2-16.5,8.1c0.7,0.4,1.3,0.9,1.9,1.4c3.4-4.3,8.7-7.1,14.6-7.1c8.7,0,16.1,6.1,18,14.3
		c0.8-0.2,1.5-0.3,2.3-0.4C130,193.3,121.7,186.4,111.8,186.4"/>
	<path d="M111.8,193.6c-4.5,0-8.5,2.2-10.9,5.6c0.5,0.6,1.1,1.2,1.6,1.9c2-3.1,5.5-5.1,9.4-5.1c5.5,0,10.1,4,11,9.3
		c0.7-0.3,1.5-0.6,2.2-0.9C123.8,198.2,118.3,193.6,111.8,193.6"/>
	<path d="M164.4,238.3c0-14.9-12.1-27-27-27c-14.9,0-27,12.1-27,27c0,14.9,12.1,27,27,27C152.3,265.2,164.4,253.1,164.4,238.3
		 M137.4,262.9c-13.6,0-24.6-11.1-24.6-24.6c0-13.6,11.1-24.6,24.6-24.6c13.6,0,24.6,11.1,24.6,24.6
		C162.1,251.9,151,262.9,137.4,262.9"/>
	<path d="M154.9,238.3c0-9.6-7.8-17.4-17.4-17.4s-17.4,7.8-17.4,17.4s7.8,17.4,17.4,17.4S154.9,247.9,154.9,238.3 M137.4,253.4
		c-8.3,0-15.1-6.8-15.1-15.1s6.8-15.1,15.1-15.1s15.1,6.8,15.1,15.1S145.8,253.4,137.4,253.4"/>
	<path d="M221.9,237.8c0-13.4-10.9-24.3-24.3-24.3c-13.4,0-24.3,10.9-24.3,24.3c0,13.4,10.9,24.3,24.3,24.3
		C211,262.2,221.9,251.2,221.9,237.8 M197.5,259.8c-12.1,0-22-9.9-22-22c0-12.1,9.9-22,22-22c12.1,0,22,9.9,22,22
		C219.5,249.9,209.7,259.8,197.5,259.8"/>
	<path d="M213.3,237.8c0-8.7-7.1-15.8-15.8-15.8c-8.7,0-15.8,7.1-15.8,15.8s7.1,15.8,15.8,15.8C206.2,253.6,213.3,246.5,213.3,237.8
		 M197.5,251.2c-7.4,0-13.4-6-13.4-13.4c0-7.4,6-13.4,13.4-13.4s13.4,6,13.4,13.4C211,245.2,205,251.2,197.5,251.2"/>
	<path d="M309.8,229.8c-0.5-2.6-1.3-5.2-2.3-7.6c-0.3-0.8-0.6-1.5-1-2.2c-1.1-2.5-2.5-4.8-4.1-7c-0.5-0.6-0.9-1.3-1.4-1.9
		c-6.6-8.3-16.2-14.1-27.1-15.9c-0.8-0.1-1.5-0.2-2.3-0.3c-1.6-0.2-3.2-0.3-4.8-0.3c-1.1,0-2.2,0.1-3.3,0.1
		c-0.8,0.1-1.6,0.1-2.4,0.2c-2.7,0.3-5.2,0.9-7.7,1.7c-0.8,0.3-1.6,0.5-2.4,0.9c-0.3,0.1-0.7,0.3-1,0.4c-0.7,0.3-1.5,0.6-2.2,1
		c-1.5,0.7-2.9,1.5-4.3,2.4c-0.7,0.4-1.3,0.8-1.9,1.3c-1.4,1-2.8,2.1-4.1,3.3c-0.6,0.5-1.2,1.1-1.7,1.7c-4.1,4.1-7.4,9.1-9.6,14.6
		c-2.8-5.1-6.9-9.3-11.8-12.3c-0.7-0.4-1.4-0.8-2.1-1.1c-1.5-0.8-3.2-1.5-4.8-2c-0.7-0.2-1.5-0.4-2.3-0.6c-1.6-0.4-3.2-0.6-4.9-0.8
		c-0.9-0.1-1.7-0.1-2.6-0.1c-0.4,0-0.9,0-1.3,0c-2.2,0.1-4.3,0.4-6.4,0.9c-0.8,0.2-1.6,0.4-2.4,0.7c-2.1,0.7-4.1,1.6-5.9,2.6
		c-0.7,0.4-1.4,0.8-2,1.2c-4.1,2.8-7.6,6.4-10.1,10.7c-2.3-4.4-5.5-8.3-9.4-11.4c-0.6-0.5-1.2-1-1.9-1.4c-1.8-1.2-3.6-2.3-5.6-3.2
		c-0.7-0.3-1.5-0.7-2.2-0.9c-2-0.7-4-1.3-6.1-1.7c-0.8-0.2-1.7-0.3-2.5-0.4c-0.8-0.1-1.7-0.2-2.5-0.2c-0.6,0-1.1,0-1.7,0
		c-0.2,0-0.4,0-0.7,0c-1.6,0-3.1,0.2-4.7,0.4c-0.8,0.1-1.5,0.3-2.3,0.4c-1.6,0.3-3.2,0.8-4.7,1.4c-0.8,0.3-1.5,0.6-2.2,0.9
		c-5.6,2.5-10.5,6.4-14.2,11.2c-0.6-5.7-2.9-11-6.2-15.3c-0.5-0.6-1-1.3-1.6-1.9c-1.1-1.2-2.3-2.3-3.6-3.4c-0.6-0.5-1.2-0.9-1.9-1.4
		c-1.3-0.9-2.6-1.6-4.1-2.3c-0.7-0.3-1.5-0.7-2.2-0.9c-0.5-0.2-1-0.4-1.5-0.5c0-0.4,0-0.8,0-1.2c0-5.1-1.4-9.8-3.9-13.9
		c-0.4-0.7-0.8-1.3-1.3-2c-0.9-1.3-2-2.5-3.1-3.6c-0.6-0.6-1.2-1.1-1.8-1.6c-1.2-1-2.5-1.8-3.9-2.6c-0.8-0.4-1.5-0.8-2.3-1.1
		c-3.2-1.4-6.8-2.2-10.5-2.2c1-4,4.7-7,9-7c3.6,0,6.7,2,8.2,5c0.7-0.3,1.4-0.6,2.2-0.8c-1.9-3.8-5.8-6.5-10.4-6.5
		c-5.7,0-10.4,4.1-11.4,9.4c-1.3,0.1-2.7,0.3-3.9,0.6c0-0.1,0-0.1,0-0.2c2.6-2.7,4.4-6.2,5.3-10c2.7-2.3,6.2-3.8,10.1-3.8
		c6.3,0,11.8,3.8,14.2,9.3c0.8-0.1,1.6-0.3,2.4-0.3c-2.6-6.6-9-11.3-16.6-11.3c-3.6,0-6.9,1.1-9.6,2.9c0-0.4,0-0.8,0-1.2
		c0-1-0.1-1.9-0.2-2.8c2.9-1.5,6.3-2.4,9.8-2.4c9.5,0,17.5,6.2,20.3,14.8c0.9,0,1.7,0.1,2.5,0.2c-0.9-3.2-2.4-6-4.4-8.5
		c-0.5-0.6-1.1-1.3-1.7-1.8c-0.8-0.8-1.6-1.5-2.5-2.2c-0.7-0.5-1.4-1-2.1-1.4c-0.9-0.5-1.9-1-2.8-1.5c-0.8-0.4-1.7-0.7-2.5-0.9
		c-0.3-0.1-0.6-0.2-0.9-0.3c-0.5-6.8-6.2-12.2-13.1-12.2c-3.5,0-6.7,1.4-9.1,3.6c-1.2-1.1-2.4-2-3.8-2.8c3.2-3.4,7.8-5.5,12.8-5.5
		c8.7,0,16,6.3,17.5,14.5c0.7-0.4,1.4-0.8,2.2-1.1c-2-9-10.1-15.7-19.7-15.7c-6,0-11.3,2.6-15,6.7c-1.4-0.6-3-1.1-4.5-1.4
		c4.5-5.9,11.6-9.7,19.5-9.7c11.5,0,21.2,8,23.9,18.7c0.8-0.2,1.5-0.3,2.3-0.4c-0.9-3.9-2.7-7.5-5.2-10.6c-0.5-0.6-1-1.2-1.6-1.8
		c-1.1-1.2-2.3-2.2-3.6-3.2c-0.7-0.5-1.3-0.9-2-1.4c-1.3-0.8-2.8-1.5-4.2-2.1c-0.8-0.3-1.6-0.6-2.5-0.8c-2.3-0.6-4.7-1-7.1-1
		c-0.9,0-1.9,0.1-2.8,0.1c-0.1-0.4-0.1-0.8-0.1-1.2c0-4.8,3.9-8.7,8.7-8.7c3.6,0,6.7,2.2,8,5.4c0.7-0.4,1.4-0.7,2.1-1.1
		c-1.7-3.9-5.6-6.7-10.1-6.7c-6.1,0-11,4.9-11,11c0,0.5,0,1,0.1,1.6c-1.1,0.2-2.3,0.5-3.3,0.9c-0.1-0.8-0.2-1.6-0.2-2.4
		c0-8,6.5-14.4,14.4-14.4c6,0,11.2,3.7,13.3,8.9c0.7-0.2,1.5-0.4,2.3-0.6c-2.5-6.2-8.5-10.7-15.6-10.7c-9.2,0-16.8,7.5-16.8,16.8
		c0,1.1,0.1,2.2,0.3,3.3c-1,0.4-2,0.9-2.9,1.5c-0.4-1.5-0.6-3.1-0.6-4.8c0-11,9-20,20-20c8.7,0,16.1,5.6,18.8,13.4
		c0.8-0.1,1.5-0.1,2.3-0.1c0,0,0.1,0,0.1,0c-1.5-4.7-4.5-8.7-8.4-11.5c2.1-2.3,5.2-3.8,8.6-3.8c4.1,0,7.8,2.2,9.9,5.4
		c0.6-0.4,1.3-0.9,2-1.3c-2.5-3.9-6.9-6.5-11.8-6.5c-4.2,0-8,1.9-10.6,4.9c-1.6-0.9-3.2-1.6-5-2c3.5-4.9,9.2-8,15.6-8
		c7,0,13.2,3.8,16.5,9.4c0.7-0.3,1.5-0.6,2.2-0.8C104.8,87.4,97.8,83,89.8,83c-7.6,0-14.3,3.9-18.1,9.9c-1.1-0.2-2.2-0.3-3.4-0.3
		c-0.7,0-1.5,0-2.2,0.1c4.4-8.7,13.3-14.6,23.7-14.6c10,0,18.7,5.6,23.2,13.7c0.4-0.8,0.9-1.6,1.3-2.3c-2.9-4.7-7.1-8.5-12.2-10.9
		c-0.7-0.3-1.4-0.6-2.2-0.9c-1.6-0.6-3.3-1.1-5-1.4c-0.8-0.1-1.5-0.3-2.3-0.3c-0.9-0.1-1.9-0.1-2.9-0.1c-0.7,0-1.5,0-2.2,0.1
		c-0.8,0.1-1.6,0.2-2.5,0.3c-9.8,1.6-18,8.2-21.9,17.1C53.4,95.5,46,104.4,46,115c0,2.1,0.3,4.2,0.9,6.1c-2.5,1.8-4.8,4.1-6.5,6.7
		c-0.4,0-0.8,0-1.3,0c-11.6,0-21.1,9.5-21.1,21.1c0,11.6,9.5,21.1,21.1,21.1c1.3,0,2.5-0.1,3.7-0.3c-5.5,4.9-8.9,12.1-8.9,20
		c0,10.5,6.1,19.6,14.9,24c-0.4,2-0.6,4-0.6,6.1c0,16.8,13.6,30.4,30.4,30.4c9.1,0,17.3-4,22.9-10.4c0.8,19.3,16.7,34.7,36.1,34.7
		c14.1,0,26.2-8.1,32.2-19.8c5.7,9.4,16.1,15.8,27.9,15.8c12.1,0,22.6-6.6,28.2-16.3c6.3,16.6,22.3,28.4,41.1,28.4
		c24.2,0,43.9-19.7,43.9-43.9c0-2.1-0.2-4.2-0.4-6.2C310.1,231.5,310,230.7,309.8,229.8 M62.5,132.1c5.5,0,10,4.1,10.7,9.4
		c-1.1-0.2-2.3-0.3-3.5-0.3c-3.7,0-7.2,0.8-10.3,2.3c-0.8-3.2-2.3-6-4.4-8.5C57,133.3,59.7,132.1,62.5,132.1 M20.3,148.8
		c0-10.3,8.4-18.7,18.7-18.7c10.3,0,18.7,8.4,18.7,18.7s-8.4,18.7-18.7,18.7C28.7,167.5,20.3,159.1,20.3,148.8 M36.2,189.5
		c0-13.5,11-24.6,24.6-24.6c13.5,0,24.6,11,24.6,24.6c0,0.2,0,0.4,0,0.6c-1.4-0.3-2.9-0.6-4.4-0.7c-0.1-11.1-9.1-20.1-20.2-20.1
		c-11.1,0-20.2,9-20.2,20.2c0,7.5,4.1,14.1,10.3,17.6c-0.6,1.3-1.1,2.7-1.6,4.2C41.5,207.1,36.2,198.9,36.2,189.5 M78.5,189.3
		c-1.6,0-3.1,0.1-4.6,0.3c0,0,0-0.1,0-0.1c0-7.2-5.9-13.1-13.1-13.1c-7.2,0-13.1,5.9-13.1,13.1c0,5,2.8,9.3,6.9,11.5
		c-1,1.2-1.8,2.5-2.6,3.9c-5.4-3.1-9-8.9-9-15.5c0-9.8,8-17.8,17.8-17.8C70.5,171.7,78.4,179.6,78.5,189.3
		C78.5,189.3,78.5,189.3,78.5,189.3 M56,199.2c-3.6-1.8-6.1-5.4-6.1-9.7c0-6,4.8-10.8,10.8-10.8c6,0,10.8,4.8,10.8,10.8
		c0,0.2,0,0.4,0,0.6C65.5,191.5,60.1,194.8,56,199.2 M78.5,247.8c-15.5,0-28.1-12.6-28.1-28.1c0-15.5,12.6-28.1,28.1-28.1
		s28.1,12.6,28.1,28.1C106.5,235.2,94,247.8,78.5,247.8 M137.4,272.1c-18.6,0-33.8-15.2-33.8-33.8c0-0.5,0-1,0-1.6
		c3.2-4.7,5.1-10.4,5.2-16.5c6-9.5,16.6-15.8,28.6-15.8c13.5,0,25.2,8,30.6,19.5c-2,4.2-3.1,8.9-3.1,13.8c0,5.1,1.2,9.9,3.3,14.2
		C163,263.8,151.2,272.1,137.4,272.1 M197.5,268c-16.7,0-30.2-13.6-30.2-30.2c0-16.7,13.6-30.2,30.2-30.2c12.2,0,22.7,7.3,27.5,17.7
		c-1.3,4.2-2.1,8.7-2.1,13.3c0,4.3,0.6,8.5,1.8,12.4C219.8,261.1,209.5,268,197.5,268 M308.4,238.6c0,22.9-18.6,41.5-41.5,41.5
		c-22.9,0-41.5-18.6-41.5-41.5s18.6-41.5,41.5-41.5C289.7,197,308.4,215.7,308.4,238.6"/>
	<path d="M266.8,205.9c-18,0-32.7,14.7-32.7,32.7s14.7,32.7,32.7,32.7c18,0,32.7-14.7,32.7-32.7S284.8,205.9,266.8,205.9
		 M297.2,238.6c0,16.7-13.6,30.4-30.4,30.4s-30.3-13.6-30.3-30.4c0-16.7,13.6-30.4,30.3-30.4S297.2,221.8,297.2,238.6"/>
	<path d="M266.8,217.6c-11.6,0-21,9.4-21,21c0,11.6,9.4,21,21,21c11.6,0,21-9.4,21-21C287.9,227,278.4,217.6,266.8,217.6
		 M266.8,257.3c-10.3,0-18.7-8.4-18.7-18.7c0-10.3,8.4-18.7,18.7-18.7s18.7,8.4,18.7,18.7C285.5,248.9,277.1,257.3,266.8,257.3"/>
	<path d="M101.2,219.7c0-12.5-10.2-22.8-22.8-22.8c-12.5,0-22.8,10.2-22.8,22.8s10.2,22.8,22.8,22.8
		C91,242.5,101.2,232.2,101.2,219.7 M78.5,240.1c-11.3,0-20.4-9.2-20.4-20.4c0-11.3,9.2-20.4,20.4-20.4c11.3,0,20.4,9.2,20.4,20.4
		C98.9,231,89.7,240.1,78.5,240.1"/>
	<path d="M93.2,219.7c0-8.1-6.6-14.8-14.8-14.8c-8.1,0-14.8,6.6-14.8,14.8c0,8.1,6.6,14.8,14.8,14.8
		C86.6,234.5,93.2,227.8,93.2,219.7 M78.5,232.1c-6.9,0-12.4-5.6-12.4-12.4c0-6.9,5.6-12.4,12.4-12.4c6.9,0,12.4,5.6,12.4,12.4
		C90.9,226.6,85.3,232.1,78.5,232.1"/>
</g>
</svg>
